# xmcd CD database file
#
# Track frame offsets:
#	150
#	31669
#	84775
#	119211
#	155206
#	188582
#
# Disc length: 2861 seconds
#
# Revision: 0
# Processed by: cddbd v1.5.2PL0 Copyright (c) Steve Scherf et al.
# Submitted via: CDex 1.51
#
DISCID=430b2b06
DTITLE=Weather Report - Shinjuku Kouseinenkin Hall CD1
DYEAR=1978
DGENRE=Jazz
TTITLE0=Elegant People
TTITLE1=Scarlet Woman
TTITLE2=Teen Town
TTITLE3=A Remark You Made
TTITLE4=Black Market
TTITLE5=Black Market 
EXTD=YEAR: 1978
EXTT0=
EXTT1=
EXTT2=
EXTT3=
EXTT4=
EXTT5=
PLAYORDER=
